<svg width="10" height="10" viewBox="0 0 10 10" fill="none" xmlns="http://www.w3.org/2000/svg">
<g clip-path="url(#clip0_25_28)">
<path d="M2.53292 9.37292C2.53307 9.20721 2.59901 9.04835 2.71626 8.93125L5.91292 5.73459C6.00968 5.63785 6.08643 5.52301 6.1388 5.39661C6.19117 5.27021 6.21812 5.13474 6.21812 4.99792C6.21812 4.8611 6.19117 4.72563 6.1388 4.59923C6.08643 4.47283 6.00968 4.35798 5.91292 4.26125L2.72042 1.06875C2.60658 0.950877 2.54358 0.793 2.545 0.629127C2.54643 0.465254 2.61216 0.308496 2.72804 0.192616C2.84392 0.076736 3.00068 0.011005 3.16455 0.00958119C3.32842 0.00815737 3.4863 0.0711542 3.60417 0.185003L6.79667 3.375C7.22594 3.80511 7.46703 4.38796 7.46703 4.99563C7.46703 5.6033 7.22594 6.18614 6.79667 6.61625L3.60001 9.815C3.5126 9.90247 3.40121 9.96204 3.27993 9.98618C3.15866 10.0103 3.03295 9.99794 2.91871 9.95061C2.80447 9.90328 2.70684 9.82313 2.63817 9.7203C2.56949 9.61747 2.53287 9.49657 2.53292 9.37292Z" fill="white"/>
</g>
<defs>
<clipPath id="clip0_25_28">
<rect width="10" height="10" fill="white" transform="translate(10 10) rotate(-180)"/>
</clipPath>
</defs>
</svg>
