<svg width="10" height="10" viewBox="0 0 10 10" fill="none" xmlns="http://www.w3.org/2000/svg">
<g clip-path="url(#clip0_25_31)">
<path d="M7.46708 0.627085C7.46693 0.792789 7.40099 0.951654 7.28374 1.06875L4.08708 4.26542C3.99032 4.36215 3.91357 4.47699 3.8612 4.60339C3.80883 4.72979 3.78188 4.86527 3.78188 5.00208C3.78188 5.1389 3.80883 5.27438 3.8612 5.40078C3.91357 5.52718 3.99032 5.64202 4.08708 5.73875L7.27957 8.93125C7.39342 9.04913 7.45642 9.207 7.455 9.37088C7.45357 9.53475 7.38784 9.69151 7.27196 9.80739C7.15608 9.92327 6.99932 9.989 6.83545 9.99042C6.67158 9.99185 6.5137 9.92885 6.39582 9.815L3.20332 6.625C2.77406 6.19489 2.53297 5.61205 2.53297 5.00438C2.53297 4.39671 2.77406 3.81386 3.20333 3.38375L6.39999 0.185001C6.4874 0.0975365 6.59879 0.0379655 6.72007 0.0138263C6.84134 -0.0103129 6.96705 0.00206464 7.08129 0.0493928C7.19553 0.0967209 7.29316 0.176872 7.36183 0.279705C7.43051 0.382538 7.46713 0.503431 7.46708 0.627085Z" fill="black"/>
</g>
<defs>
<clipPath id="clip0_25_31">
<rect width="10" height="10" fill="white"/>
</clipPath>
</defs>
</svg>
