<svg width="20" height="20" viewBox="0 0 20 20" fill="none" xmlns="http://www.w3.org/2000/svg">
<g clip-path="url(#clip0_7_306)">
<path d="M0.2725 10C0.296667 9.92251 0.3075 9.84168 0.335 9.76501L2.58333 3.57584C2.87694 2.77276 3.40997 2.07914 4.1104 1.58869C4.81084 1.09824 5.64493 0.834583 6.5 0.833344H13.5C14.3552 0.834526 15.1894 1.09826 15.8899 1.58888C16.5904 2.07951 17.1233 2.77337 17.4167 3.57668L19.6667 9.76501C19.6942 9.84168 19.705 9.92251 19.7292 10H0.2725ZM16.6667 11.6667V13.3333C16.6667 13.5544 16.5789 13.7663 16.4226 13.9226C16.2663 14.0789 16.0543 14.1667 15.8333 14.1667C15.6123 14.1667 15.4004 14.0789 15.2441 13.9226C15.0878 13.7663 15 13.5544 15 13.3333V11.6667H5V13.3333C5 13.5544 4.9122 13.7663 4.75592 13.9226C4.59964 14.0789 4.38768 14.1667 4.16667 14.1667C3.94565 14.1667 3.73369 14.0789 3.57741 13.9226C3.42113 13.7663 3.33333 13.5544 3.33333 13.3333V11.6667H0V13.3333C0.00106531 14.1431 0.238088 14.9351 0.682083 15.6123C1.12608 16.2896 1.7578 16.8228 2.5 17.1467V18.3333C2.5 18.7754 2.67559 19.1993 2.98816 19.5119C3.30072 19.8244 3.72464 20 4.16667 20C4.60869 20 5.03262 19.8244 5.34518 19.5119C5.65774 19.1993 5.83333 18.7754 5.83333 18.3333V17.5H14.1667V18.3333C14.1667 18.7754 14.3423 19.1993 14.6548 19.5119C14.9674 19.8244 15.3913 20 15.8333 20C16.2754 20 16.6993 19.8244 17.0118 19.5119C17.3244 19.1993 17.5 18.7754 17.5 18.3333V17.1467C18.2422 16.8228 18.8739 16.2896 19.3179 15.6123C19.7619 14.9351 19.9989 14.1431 20 13.3333V11.6667H16.6667Z" fill="white"/>
</g>
<defs>
<clipPath id="clip0_7_306">
<rect width="20" height="20" fill="white"/>
</clipPath>
</defs>
</svg>
