<svg width="20" height="20" viewBox="0 0 20 20" fill="none" xmlns="http://www.w3.org/2000/svg">
<g clip-path="url(#clip0_7_625)">
<path d="M3.33332 0H5.83332C7.67426 0 9.16664 1.49238 9.16664 3.33332V5.83332C9.16664 7.67426 7.67426 9.16664 5.83332 9.16664H3.33332C1.49238 9.16668 0 7.6743 0 5.83332V3.33332C0 1.49238 1.49238 0 3.33332 0Z" fill="white"/>
<path d="M14.1667 0H16.6667C18.5076 0 20 1.49238 20 3.33332V5.83332C20 7.67426 18.5076 9.16664 16.6667 9.16664H14.1667C12.3258 9.16664 10.8334 7.67426 10.8334 5.83332V3.33332C10.8333 1.49238 12.3257 0 14.1667 0Z" fill="white"/>
<path d="M3.33332 10.8333H5.83332C7.67426 10.8333 9.16664 12.3257 9.16664 14.1666V16.6666C9.16664 18.5076 7.67426 20 5.83332 20H3.33332C1.49238 20 0 18.5076 0 16.6667V14.1667C0 12.3257 1.49238 10.8333 3.33332 10.8333Z" fill="white"/>
<path d="M14.1667 10.8333H16.6667C18.5076 10.8333 20 12.3257 20 14.1666V16.6666C20 18.5076 18.5076 20 16.6667 20H14.1667C12.3258 20 10.8334 18.5076 10.8334 16.6667V14.1667C10.8333 12.3257 12.3257 10.8333 14.1667 10.8333Z" fill="white"/>
</g>
<defs>
<clipPath id="clip0_7_625">
<rect width="20" height="20" fill="white"/>
</clipPath>
</defs>
</svg>
