<svg width="20" height="20" viewBox="0 0 20 20" fill="none" xmlns="http://www.w3.org/2000/svg">
<g clip-path="url(#clip0_21_779)">
<path d="M15 9.99667V4.16334C15 1.86584 13.1308 -0.00332642 10.8333 -0.00332642H4.16667C1.86917 -0.00332642 0 1.86584 0 4.16334V14.875C0 15.5358 0.3625 16.1408 0.945 16.4533C1.21 16.5958 1.50083 16.6658 1.79083 16.6658C2.1375 16.6658 2.48333 16.565 2.78333 16.3658L6.08583 14.1633H10.8333C13.1308 14.1633 15 12.2942 15 9.99667ZM7.5 11.6667C7.04 11.6667 6.66667 11.2933 6.66667 10.8333C6.66667 10.3733 7.04 10 7.5 10C7.96 10 8.33333 10.3733 8.33333 10.8333C8.33333 11.2933 7.96 11.6667 7.5 11.6667ZM8.70583 8.02417C8.33333 8.22917 8.33333 8.28917 8.33333 8.33334C8.33333 8.79417 7.96 9.16667 7.5 9.16667C7.04 9.16667 6.66667 8.79417 6.66667 8.33334C6.66667 7.24334 7.53167 6.76751 7.90083 6.56417C8.1425 6.43167 8.39667 6.11834 8.31917 5.67584C8.26167 5.34917 7.98417 5.07167 7.65833 5.01501C7.40333 4.96834 7.15667 5.03334 6.965 5.19501C6.775 5.35334 6.66667 5.58667 6.66667 5.83417C6.66667 6.29501 6.29333 6.66751 5.83333 6.66751C5.37333 6.66751 5 6.29501 5 5.83417C5 5.09334 5.32583 4.39501 5.89333 3.91834C6.46083 3.44167 7.2075 3.24001 7.94583 3.37417C8.95333 3.55001 9.7825 4.37834 9.96 5.38834C10.1458 6.44834 9.64167 7.50751 8.705 8.02501L8.70583 8.02417ZM20 7.49667V18.2083C20 18.8692 19.6375 19.4742 19.055 19.7867C18.79 19.9292 18.4992 19.9992 18.2092 20C17.8625 20 17.5167 19.8992 17.2175 19.7L13.9142 17.4967H9.16667C7.95833 17.4967 6.8775 16.9708 6.11583 16.1467L6.59 15.83H10.8333C14.0492 15.83 16.6667 13.2125 16.6667 9.99667V4.16334C16.6667 3.90667 16.6442 3.65667 16.6125 3.40834C18.5383 3.77501 20 5.46584 20 7.49667Z" fill="white"/>
</g>
<defs>
<clipPath id="clip0_21_779">
<rect width="20" height="20" fill="white"/>
</clipPath>
</defs>
</svg>
