<svg width="20" height="20" viewBox="0 0 20 20" fill="none" xmlns="http://www.w3.org/2000/svg">
<g clip-path="url(#clip0_7_72)">
<path d="M18.1642 4.64892L12.3308 0.712252C10.915 -0.242748 9.085 -0.242748 7.66917 0.712252L1.83667 4.64892C0.686667 5.42392 0 6.71475 0 8.10309V15.8331C0 18.1306 1.86917 19.9998 4.16667 19.9998H15.8333C18.1308 19.9998 20 18.1306 20 15.8331V8.10309C20 6.71559 19.3133 5.42392 18.1642 4.64892ZM13.3333 13.3331C13.3333 14.2523 12.5858 14.9998 11.6667 14.9998H8.33333C7.41417 14.9998 6.66667 14.2523 6.66667 13.3331V9.99975C6.66667 9.08059 7.41417 8.33309 8.33333 8.33309H11.6667C12.5858 8.33309 13.3333 9.08059 13.3333 9.99975V13.3331ZM11.6667 9.99975L11.6683 13.3331H8.33333V9.99975H11.6667Z" fill="white"/>
</g>
<defs>
<clipPath id="clip0_7_72">
<rect width="20" height="20" fill="white"/>
</clipPath>
</defs>
</svg>
