<svg width="20" height="20" viewBox="0 0 20 20" fill="none" xmlns="http://www.w3.org/2000/svg">
<g clip-path="url(#clip0_7_311)">
<path d="M11.6667 15H8.33333C7.41417 15 6.66667 14.2525 6.66667 13.3333V10C6.66667 9.08083 7.41417 8.33333 8.33333 8.33333H11.6667C12.5858 8.33333 13.3333 9.08083 13.3333 10V13.3333C13.3333 14.2525 12.5858 15 11.6667 15ZM8.33333 10V13.3333H11.6683L11.6667 10H8.33333ZM15.8333 20H4.16667C1.86917 20 0 18.1308 0 15.8333V8.10333C0 6.71583 0.686667 5.42416 1.83667 4.64916L7.66917 0.712496C9.085 -0.242504 10.915 -0.242504 12.3308 0.712496L18.1642 4.64916C19.3133 5.42416 20 6.715 20 8.10333V15.8333C20 18.1308 18.1308 20 15.8333 20ZM10 1.66416C9.51333 1.66416 9.02667 1.8075 8.60167 2.095L2.76833 6.03083C2.07833 6.49583 1.66667 7.27 1.66667 8.1025V15.8325C1.66667 17.2108 2.78833 18.3325 4.16667 18.3325H15.8333C17.2117 18.3325 18.3333 17.2108 18.3333 15.8325V8.10333C18.3333 7.27083 17.9217 6.49583 17.2325 6.03166L11.3983 2.095C10.9733 1.8075 10.4867 1.66416 10 1.66416Z" fill="#8C8C8C"/>
</g>
<defs>
<clipPath id="clip0_7_311">
<rect width="20" height="20" fill="white"/>
</clipPath>
</defs>
</svg>
