<svg width="15" height="16" viewBox="0 0 15 16" fill="none" xmlns="http://www.w3.org/2000/svg">
<g clip-path="url(#clip0_21_1105)">
<path d="M1.14378 1.21333L1.80003 0.606666C2.55628 -0.200001 3.78129 -0.200001 4.53753 0.606666C4.55628 0.626666 5.71253 2.23333 5.71253 2.23333C6.42504 3.03333 6.42504 4.29333 5.71253 5.08667L4.98753 6.06C5.90003 8.26667 7.31878 9.78667 9.31879 10.6933L10.2313 9.91333C10.975 9.14667 12.1625 9.14667 12.9063 9.91333C12.9063 9.91333 14.4125 11.1467 14.4313 11.1667C15.1875 11.9733 15.1875 13.28 14.4625 14.0533L13.8375 14.82C13.1188 15.5867 12.15 16.0067 11.1 16.0067C6.32504 16.0067 3.43323e-05 9.25333 3.43323e-05 4.16667C3.43323e-05 3.05333 0.393785 2.01333 1.14378 1.22V1.21333ZM11.1 14.6667C11.8125 14.6667 12.4688 14.3867 12.9188 13.9L13.5438 13.1333C13.8 12.86 13.8125 12.4133 13.5688 12.1267C13.5688 12.1267 12.075 10.9 12.0563 10.88C11.8 10.6067 11.35 10.6067 11.0875 10.88C11.0688 10.9 9.81254 11.9733 9.81254 11.9733C9.63754 12.12 9.40629 12.16 9.20004 12.0733C6.61254 11.02 4.75628 9.04667 3.68753 6.2C3.60628 5.98 3.63753 5.72667 3.78128 5.53333C3.78128 5.53333 4.78753 4.18667 4.80003 4.17333C5.06878 3.88667 5.06878 3.42667 4.80003 3.14C4.78129 3.12 3.63128 1.52667 3.63128 1.52667C3.36253 1.26667 2.94378 1.27333 2.65628 1.58L2.00004 2.18667C1.51878 2.7 1.25003 3.4 1.25003 4.16C1.25003 8.8 7.35629 14.6667 11.1 14.6667Z" fill="#8E44AC"/>
</g>
<defs>
<clipPath id="clip0_21_1105">
<rect width="15" height="16" fill="white" transform="matrix(-1 0 0 1 15 0)"/>
</clipPath>
</defs>
</svg>
