<svg width="15" height="15" viewBox="0 0 15 15" fill="none" xmlns="http://www.w3.org/2000/svg">
<g clip-path="url(#clip0_21_1150)">
<path fill-rule="evenodd" clip-rule="evenodd" d="M7.5 0C3.35813 0 0 3.35813 0 7.5C0 11.6419 3.35813 15 7.5 15C11.6419 15 15 11.6419 15 7.5C15 3.35813 11.6419 0 7.5 0ZM10.9762 5.10063C10.8638 6.28625 10.375 9.16438 10.1269 10.4925C10.0219 11.055 9.81437 11.2431 9.61438 11.2612C9.17875 11.3012 8.84813 10.9731 8.42625 10.6969C7.76625 10.2644 7.39313 9.995 6.7525 9.5725C6.01188 9.08438 6.49188 8.81625 6.91375 8.37813C7.02437 8.26312 8.94313 6.5175 8.98063 6.35938C8.985 6.33938 8.99 6.26562 8.94563 6.22688C8.90125 6.18813 8.83687 6.20125 8.79062 6.21187C8.72437 6.22688 7.67 6.92375 5.62687 8.3025C5.3275 8.50813 5.05625 8.60813 4.81313 8.60313C4.54563 8.5975 4.03062 8.45187 3.6475 8.32687C3.17812 8.17437 2.80437 8.09313 2.83687 7.83437C2.85375 7.69937 3.03938 7.56125 3.39438 7.42C5.58063 6.4675 7.03875 5.83938 7.76813 5.53563C9.85125 4.66938 10.2838 4.51875 10.5662 4.51375C10.92 4.50875 11.005 4.80063 10.9762 5.10063Z" fill="#3FAEE8"/>
</g>
<defs>
<clipPath id="clip0_21_1150">
<rect width="15" height="15" fill="white"/>
</clipPath>
</defs>
</svg>
