<svg width="15" height="15" viewBox="0 0 15 15" fill="none" xmlns="http://www.w3.org/2000/svg">
<g clip-path="url(#clip0_21_815)">
<path d="M14.0594 11.2006C13.8108 11.2004 13.5725 11.1015 13.3969 10.9256L8.60189 6.13062C8.45679 5.98549 8.28452 5.87036 8.09493 5.79181C7.90533 5.71326 7.70211 5.67283 7.49689 5.67283C7.29166 5.67283 7.08845 5.71326 6.89885 5.79181C6.70925 5.87036 6.53699 5.98549 6.39189 6.13062L1.60314 10.9194C1.42632 11.0901 1.18951 11.1846 0.9437 11.1825C0.69789 11.1804 0.462753 11.0818 0.288933 10.908C0.115113 10.7341 0.0165173 10.499 0.0143811 10.2532C0.0122449 10.0074 0.10674 9.77056 0.277513 9.59375L5.06251 4.805C5.70768 4.1611 6.58195 3.79947 7.49345 3.79947C8.40495 3.79947 9.27922 4.1611 9.92439 4.805L14.7225 9.6C14.8537 9.73111 14.9431 9.89819 14.9793 10.0801C15.0155 10.262 14.9969 10.4506 14.9259 10.6219C14.8549 10.7933 14.7347 10.9398 14.5805 11.0428C14.4262 11.1458 14.2449 11.2007 14.0594 11.2006Z" fill="#8E44AC"/>
</g>
<defs>
<clipPath id="clip0_21_815">
<rect width="15" height="15" fill="white" transform="translate(15) rotate(90)"/>
</clipPath>
</defs>
</svg>
